<?xml version="1.0" encoding="iso-8859-1"?>
<!-- Generator: Adobe Illustrator 16.0.0, SVG Export Plug-In . SVG Version: 6.00 Build 0)  -->
<!DOCTYPE svg PUBLIC "-//W3C//DTD SVG 1.1//EN" "http://www.w3.org/Graphics/SVG/1.1/DTD/svg11.dtd">
<svg xmlns="http://www.w3.org/2000/svg" xmlns:xlink="http://www.w3.org/1999/xlink" version="1.1" id="Capa_1" x="0px" y="0px" width="512px" height="512px" viewBox="0 0 597.991 597.99" style="enable-background:new 0 0 597.991 597.99;" xml:space="preserve">
<g>
	<g>
		<circle cx="205.804" cy="48.788" r="48.788" fill="#FFFFFF"/>
		<path d="M550.498,486.463c5.226,0,9.769,2.912,12.102,7.201c0.641,1.176,1.769,1.486,2.696,0.521    c7.688-7.951,12.422-18.771,12.422-30.705c0-24.408-19.785-44.193-44.193-44.193c-1.754,0-3.485,0.109-5.183,0.311    c-1.329,0.158-1.349,0.65-0.148,1.238c5.04,2.477,8.511,7.654,8.511,13.65c0,8.396-6.804,15.205-15.204,15.205    c-8.396,0-15.204-6.809-15.204-15.205c0-1.721,0.286-3.371,0.812-4.91c0.436-1.268,0.076-1.602-0.976-0.775    c-10.236,8.096-16.806,20.613-16.806,34.674c0,24.408,19.784,44.193,44.193,44.193c0.927,0,1.845-0.033,2.758-0.09    c1.334-0.086,1.832-1.143,1.349-2.396c-0.593-1.535-0.923-3.193-0.923-4.938C536.713,492.637,542.886,486.463,550.498,486.463z     M556.408,445.449c6.583,0,11.919,5.336,11.919,11.92s-5.336,11.92-11.919,11.92c-6.579,0-11.92-5.336-11.92-11.92    S549.824,445.449,556.408,445.449z M514.423,486.463c-7.421,0-13.436-6.014-13.436-13.436c0-7.42,6.015-13.434,13.436-13.434    c7.42,0,13.436,6.014,13.436,13.434C527.859,480.449,521.843,486.463,514.423,486.463z" fill="#FFFFFF"/>
		<circle cx="394.94" cy="304.14" r="33.727" fill="#FFFFFF"/>
		<path d="M346.664,348.17c-3.112,0.598-6.072,2.109-8.396,4.6l-45.67,49.592c-5.833,6.258-5.494,16.061,0.76,21.893    c2.983,2.789,6.779,4.166,10.566,4.166c4.146,0,8.281-1.654,11.331-4.92l23.528-25.547l-4.509,172.479    c-0.349,9.975,7.454,18.346,17.428,18.699c0.216,0.006,0.431,0.01,0.646,0.01c9.688,0,17.705-7.678,18.05-17.438l3.38-96.055    h14.057l94.315,70.203c3.241,2.41,7.023,3.576,10.776,3.576c5.518,0,10.969-2.516,14.512-7.281    c5.962-8.01,4.303-19.332-3.706-25.289l-85.235-63.447v-55.777l36.691,39.346c3.056,3.316,7.22,4.996,11.398,4.996    c3.754,0,7.512-1.359,10.49-4.098c6.292-5.795,6.694-15.592,0.899-21.885l-58.891-63.145c-2.329-2.535-5.312-4.064-8.449-4.668    c-0.712-0.176-1.448-0.287-2.213-0.305c-0.039,0-0.077-0.01-0.115-0.01c-0.048,0-0.091-0.016-0.139-0.016h-59.062    C348.26,347.846,347.453,347.979,346.664,348.17z" fill="#FFFFFF"/>
		<path d="M37.212,293.889c3.084,1.176,6.249,1.735,9.362,1.735c10.595,0,20.578-6.45,24.576-16.94l34.071-89.356l19.489-12.819    v158.633L105.101,569.5c-1.215,14.473,9.539,27.191,24.006,28.395c0.746,0.068,1.492,0.096,2.224,0.096    c13.531,0,25.025-10.379,26.177-24.102l17.184-205.383h23.328l18.657,205.564c1.238,13.656,12.708,23.92,26.158,23.92    c0.798,0,1.602-0.033,2.41-0.104c14.463-1.311,25.125-14.102,23.811-28.568l-21.516-237.074c-0.043-0.492-0.134-0.965-0.206-1.449    V195.247l10.633,13.875c4.007,5.145,9.778,8.62,16.199,9.753l70.125,12.35c1.545,0.272,3.079,0.401,4.596,0.401    c12.521,0,23.614-8.979,25.866-21.74c2.515-14.305-7.038-27.941-21.339-30.461l-60.147-10.591l-35.458-46.397    c-4.647-5.967-11.36-9.324-18.341-9.969c-0.55-0.1-1.114-0.172-1.692-0.172H134.271c-0.598,0-1.176,0.072-1.745,0.177    c-3.945,0.301-7.88,1.392-11.504,3.562L70.36,148.907c-5.059,3.036-8.946,7.674-11.045,13.187l-37.308,97.862    C16.83,273.526,23.638,288.716,37.212,293.889z" fill="#FFFFFF"/>
	</g>
</g>
<g>
</g>
<g>
</g>
<g>
</g>
<g>
</g>
<g>
</g>
<g>
</g>
<g>
</g>
<g>
</g>
<g>
</g>
<g>
</g>
<g>
</g>
<g>
</g>
<g>
</g>
<g>
</g>
<g>
</g>
</svg>
